<mxfile host="app.diagrams.net" modified="2023-11-26T14:11:51.258Z" agent="Mozilla/5.0 (Windows NT 10.0; Win64; x64) AppleWebKit/537.36 (KHTML, like Gecko) Chrome/119.0.0.0 Safari/537.36" version="22.1.4" etag="dFcaYIzg0rZkGG6j8A_p" type="github">
  <diagram name="Страница — 1" id="r-FfXrw-rCbnkseVcwbH">
    <mxGraphModel>
      <root>
        <mxCell id="0" />
        <mxCell id="1" parent="0" />
      </root>
    </mxGraphModel>
  </diagram>
</mxfile>
